<svg width="26" height="26" viewBox="0 0 26 26" fill="none" xmlns="http://www.w3.org/2000/svg">
<path d="M20 10.2516V17.7143C20 18.0553 19.8606 18.3823 19.6123 18.6234C19.3641 18.8645 19.0275 19 18.6765 19H6.32353C5.97251 19 5.63587 18.8645 5.38766 18.6234C5.13945 18.3823 5 18.0553 5 17.7143V10.2516L10.5028 14.7837C11.0607 15.2433 11.7685 15.4955 12.5 15.4955C13.2315 15.4955 13.9393 15.2433 14.4972 14.7837L20 10.2516ZM18.6765 7C18.8377 7.00017 18.9977 7.02863 19.1485 7.084C19.3654 7.16425 19.5566 7.2988 19.7026 7.474C19.7818 7.56822 19.8468 7.67283 19.8959 7.78471C19.9532 7.91671 19.9885 8.05986 19.9974 8.21029L20 8.28571V8.71429L13.359 14.2171C13.1304 14.4065 12.8423 14.5148 12.5421 14.524C12.2418 14.5333 11.9472 14.4431 11.7068 14.2681L11.641 14.2167L5 8.71429V8.28571C4.99946 8.04773 5.06716 7.81431 5.19549 7.6116C5.32383 7.40888 5.50774 7.24489 5.72662 7.138C5.91168 7.04711 6.11617 6.99983 6.32353 7H18.6765Z" fill="#CCCCCC"/>
</svg>
