<svg width="40" height="40" viewBox="0 0 40 40" fill="none" xmlns="http://www.w3.org/2000/svg">
<g clip-path="url(#clip0_446_15)">
<path d="M20.0001 2.50206C22.3632 2.50206 24.6545 2.96443 26.8105 3.87633C28.8939 4.75753 30.7654 6.01948 32.373 7.62711C33.9806 9.23474 35.2426 11.1063 36.1238 13.1897C37.0357 15.3456 37.4981 17.637 37.4981 20C37.4981 22.3631 37.0357 24.6545 36.1238 26.8104C35.2426 28.8938 33.9806 30.7653 32.373 32.373C30.7654 33.9806 28.8938 35.2425 26.8105 36.1237C24.6545 37.0356 22.3632 37.498 20.0001 37.498C17.637 37.498 15.3456 37.0356 13.1897 36.1237C11.1063 35.2425 9.23478 33.9806 7.62715 32.373C6.01952 30.7653 4.75757 28.8938 3.87637 26.8104C2.96447 24.6545 2.5021 22.3631 2.5021 20C2.5021 17.6369 2.96447 15.3456 3.87637 13.1897C4.75757 11.1062 6.01952 9.23474 7.62715 7.62711C9.23478 6.01948 11.1063 4.75753 13.1897 3.87633C15.3456 2.96443 17.637 2.50206 20.0001 2.50206ZM20.0001 0.503418C9.23238 0.503418 0.503418 9.23238 0.503418 20.0001C0.503418 30.7678 9.23238 39.4967 20.0001 39.4967C30.7678 39.4967 39.4967 30.7678 39.4967 20.0001C39.4967 9.23238 30.7678 0.503418 20.0001 0.503418Z" fill="white" fill-opacity="0.3"/>
<path d="M17.5995 14.5963V17.5992H15.1968V21.2003H17.5995V29.6048H21.2012V21.2003H24.8037V17.5992H21.2019V15.1972C21.2019 14.4765 21.6821 13.9968 22.401 13.9968H24.8037V10.395H21.7995C19.52 10.395 17.5995 12.3154 17.5995 14.5963Z" fill="white" fill-opacity="0.3"/>
</g>
<defs>
<clipPath id="clip0_446_15">
<rect width="40" height="40" fill="white"/>
</clipPath>
</defs>
</svg>
