<svg width="20" height="20" viewBox="0 0 20 20" fill="none" xmlns="http://www.w3.org/2000/svg">
<path d="M10.0002 1.11111C5.11133 1.11111 1.11133 5.11111 1.11133 10C1.11133 14.8889 5.11133 18.8889 10.0002 18.8889C14.8891 18.8889 18.8891 14.8889 18.8891 10C18.8891 5.11111 14.8891 1.11111 10.0002 1.11111ZM10.0002 17.7778C5.66688 17.7778 2.22244 14.3333 2.22244 10C2.22244 5.66667 5.66688 2.22223 10.0002 2.22223C14.3336 2.22223 17.778 5.66667 17.778 10C17.778 14.3333 14.3336 17.7778 10.0002 17.7778Z" fill="#C80303"/>
<path d="M9.99978 13.3333C9.66645 13.3333 9.44423 13.4445 9.222 13.6667C8.99978 13.8889 8.88867 14.1111 8.88867 14.4445C8.88867 14.7778 8.99978 15 9.222 15.2222C9.44423 15.4445 9.66645 15.5556 9.99978 15.5556C10.3331 15.5556 10.5553 15.4445 10.7776 15.2222C10.9998 15 11.1109 14.7778 11.1109 14.4445C11.1109 14.1111 10.9998 13.8889 10.7776 13.6667C10.5553 13.4445 10.3331 13.3333 9.99978 13.3333ZM8.99978 4.44446L9.33312 12.4445H10.5553L10.9998 4.44446H8.99978Z" fill="#C80303"/>
</svg>
