<svg width="26" height="26" viewBox="0 0 26 26" fill="none" xmlns="http://www.w3.org/2000/svg">
<path d="M17.05 10.8866H15.1V10.1745C15.1 8.97408 14.764 6.96546 12.5 6.96546C10.1493 6.96546 9.9 9.2075 9.9 10.1745V10.8866H7.95V10.1745C7.95 7.02954 9.73733 5 12.5 5C15.2627 5 17.05 7.02954 17.05 10.1745V10.8866ZM13.8 16.1134C13.8 15.3909 13.2147 14.8077 12.5 14.8077C11.7853 14.8077 11.2 15.3909 11.2 16.1134C11.2 16.6025 11.4607 17.0177 11.8507 17.2393V18.7275C11.8507 19.0884 12.1427 19.3866 12.5007 19.3866C12.8587 19.3866 13.1507 19.0884 13.1507 18.7275V17.2393C13.54 17.0177 13.8 16.6025 13.8 16.1134ZM19 13.5V20.0345C19 21.118 18.122 22 17.05 22H7.95C6.87867 22 6 21.118 6 20.0345V13.5C6 12.4172 6.87801 11.5345 7.95 11.5345H17.05C18.122 11.5345 19 12.4172 19 13.5Z" fill="#CCCCCC"/>
</svg>
