<svg width="41" height="41" viewBox="0 0 41 41" fill="none" xmlns="http://www.w3.org/2000/svg">
<path d="M20.5 0.5C16.5444 0.5 12.6776 1.67298 9.3886 3.87061C6.09962 6.06824 3.53617 9.19181 2.02242 12.8463C0.508666 16.5009 0.112599 20.5222 0.884303 24.4018C1.65601 28.2814 3.56082 31.8451 6.35787 34.6421C9.15492 37.4392 12.7186 39.344 16.5982 40.1157C20.4778 40.8874 24.4991 40.4913 28.1537 38.9776C31.8082 37.4638 34.9318 34.9004 37.1294 31.6114C39.327 28.3224 40.5 24.4556 40.5 20.5C40.4944 15.1974 38.3854 10.1136 34.6359 6.3641C30.8864 2.6146 25.8026 0.505647 20.5 0.5ZM20.5 37.8333C17.0718 37.8333 13.7206 36.8167 10.8701 34.9121C8.01967 33.0075 5.79802 30.3004 4.4861 27.1332C3.17418 23.9659 2.83092 20.4808 3.49973 17.1184C4.16854 13.7561 5.81938 10.6676 8.24349 8.24348C10.6676 5.81937 13.7561 4.16853 17.1184 3.49972C20.4808 2.83091 23.9659 3.17417 27.1332 4.48609C30.3004 5.79801 33.0075 8.01966 34.9121 10.8701C36.8168 13.7206 37.8333 17.0718 37.8333 20.5C37.8277 25.0953 35.9997 29.5009 32.7503 32.7503C29.5009 35.9997 25.0954 37.8277 20.5 37.8333Z" fill="white" fill-opacity="0.3"/>
<path d="M27.9667 11.7H13.0333C12.6797 11.7 12.3406 11.8405 12.0905 12.0905C11.8405 12.3406 11.7 12.6797 11.7 13.0333C11.7 13.387 11.8405 13.7261 12.0905 13.9761C12.3406 14.2262 12.6797 14.3667 13.0333 14.3667H19.1667V29.8333C19.1667 30.1869 19.3071 30.5261 19.5572 30.7761C19.8072 31.0262 20.1464 31.1667 20.5 31.1667C20.8536 31.1667 21.1928 31.0262 21.4428 30.7761C21.6929 30.5261 21.8333 30.1869 21.8333 29.8333V14.3667H27.9667C28.3203 14.3667 28.6594 14.2262 28.9095 13.9761C29.1595 13.7261 29.3 13.387 29.3 13.0333C29.3 12.6797 29.1595 12.3406 28.9095 12.0905C28.6594 11.8405 28.3203 11.7 27.9667 11.7Z" fill="white" fill-opacity="0.3"/>
</svg>

