<svg width="26" height="26" viewBox="0 0 26 26" fill="none" xmlns="http://www.w3.org/2000/svg">
<path d="M12.8205 12.9995C15.1943 12.9995 17.1187 11.1205 17.1187 8.80342C17.1187 6.48586 15.1943 4.60767 12.8205 4.60767C10.4469 4.60767 8.52224 6.48586 8.52245 8.80342C8.52242 11.1205 10.4469 12.9995 12.8206 12.9995H12.8205ZM14.7909 14.3984H11.2086C8.14227 14.3984 5.65625 16.8249 5.65625 19.8181V20.1678C5.65625 21.3911 8.14227 21.3923 11.2086 21.3923H14.7908C17.8569 21.3923 20.3427 21.3471 20.3427 20.1678V19.8181C20.3427 16.8249 17.8571 14.3985 14.7908 14.3985L14.7909 14.3984Z" fill="#CCCCCC"/>
</svg>
