<svg width="40" height="40" viewBox="0 0 40 40" fill="none" xmlns="http://www.w3.org/2000/svg">
<g clip-path="url(#clip0_446_18)">
<path d="M20 40C14.6957 40 9.60859 37.8929 5.85786 34.1421C2.10714 30.3914 0 25.3043 0 20C0 14.6957 2.10714 9.60859 5.85786 5.85786C9.60859 2.10714 14.6957 0 20 0C25.3043 0 30.3914 2.10714 34.1421 5.85786C37.8929 9.60859 40 14.6957 40 20C40 25.3043 37.8929 30.3914 34.1421 34.1421C30.3914 37.8929 25.3043 40 20 40ZM20 38.75C22.4623 38.75 24.9005 38.265 27.1753 37.3227C29.4502 36.3805 31.5172 34.9994 33.2583 33.2583C34.9994 31.5172 36.3805 29.4502 37.3227 27.1753C38.265 24.9005 38.75 22.4623 38.75 20C38.75 17.5377 38.265 15.0995 37.3227 12.8247C36.3805 10.5498 34.9994 8.48285 33.2583 6.74175C31.5172 5.00065 29.4502 3.61953 27.1753 2.67726C24.9005 1.73498 22.4623 1.25 20 1.25C15.0272 1.25 10.2581 3.22544 6.74175 6.74175C3.22544 10.2581 1.25 15.0272 1.25 20C1.25 24.9728 3.22544 29.7419 6.74175 33.2583C10.2581 36.7746 15.0272 38.75 20 38.75ZM16.185 24.775C15.095 24.775 14.23 24.55 13.14 24.325L10.095 25.825L10.9575 23.2325C8.7775 21.73 7.5 19.775 7.5 17.3675C7.5 13.2325 11.41 10 16.185 10C20.4325 10 24.1925 12.595 24.9425 16.09C24.68 16.0525 24.38 16.0525 24.1175 16.0525C19.98 16.0525 16.7475 19.135 16.7475 22.9325C16.7475 23.5725 16.86 24.1725 17.0125 24.7375C16.7125 24.7375 16.4475 24.775 16.185 24.775ZM28.89 27.82L29.53 30L27.1625 28.685C26.2975 28.91 25.4325 29.135 24.5675 29.135C20.4325 29.135 17.2 26.315 17.2 22.8575C17.2 19.3975 20.4325 16.58 24.5675 16.58C28.4775 16.58 31.935 19.3975 31.935 22.855C31.935 24.775 30.66 26.505 28.89 27.82ZM11.935 14.8875C11.935 15.2465 12.0776 15.5909 12.3315 15.8447C12.5854 16.0986 12.9297 16.2412 13.2887 16.2412C13.6478 16.2412 13.9921 16.0986 14.246 15.8447C14.4999 15.5909 14.6425 15.2465 14.6425 14.8875C14.6425 14.5285 14.4999 14.1841 14.246 13.9303C13.9921 13.6764 13.6478 13.5337 13.2887 13.5337C12.9297 13.5337 12.5854 13.6764 12.3315 13.9303C12.0776 14.1841 11.935 14.5285 11.935 14.8875ZM17.9875 14.85C17.9875 15.209 18.1301 15.5534 18.384 15.8072C18.6379 16.0611 18.9822 16.2038 19.3412 16.2038C19.7003 16.2038 20.0446 16.0611 20.2985 15.8072C20.5524 15.5534 20.695 15.209 20.695 14.85C20.695 14.491 20.5524 14.1466 20.2985 13.8928C20.0446 13.6389 19.7003 13.4963 19.3412 13.4963C18.9822 13.4963 18.6379 13.6389 18.384 13.8928C18.1301 14.1466 17.9875 14.491 17.9875 14.85ZM21.375 20.9C21.375 21.1493 21.474 21.3884 21.6503 21.5647C21.8266 21.741 22.0657 21.84 22.315 21.84C22.5643 21.84 22.8034 21.741 22.9797 21.5647C23.156 21.3884 23.255 21.1493 23.255 20.9C23.255 20.6507 23.156 20.4116 22.9797 20.2353C22.8034 20.059 22.5643 19.96 22.315 19.96C22.0657 19.96 21.8266 20.059 21.6503 20.2353C21.474 20.4116 21.375 20.6507 21.375 20.9ZM26.15 20.9775C26.15 21.2268 26.249 21.4659 26.4253 21.6422C26.6016 21.8185 26.8407 21.9175 27.09 21.9175C27.3393 21.9175 27.5784 21.8185 27.7547 21.6422C27.931 21.4659 28.03 21.2268 28.03 20.9775C28.03 20.7282 27.931 20.4891 27.7547 20.3128C27.5784 20.1365 27.3393 20.0375 27.09 20.0375C26.8407 20.0375 26.6016 20.1365 26.4253 20.3128C26.249 20.4891 26.15 20.7282 26.15 20.9775Z" fill="white" fill-opacity="0.3"/>
</g>
<defs>
<clipPath id="clip0_446_18">
<rect width="40" height="40" fill="white"/>
</clipPath>
</defs>
</svg>
