<svg width="40" height="40" viewBox="0 0 40 40" fill="none" xmlns="http://www.w3.org/2000/svg">
<g clip-path="url(#clip0_446_30)">
<path d="M20.0001 2.50206C22.3632 2.50206 24.6545 2.96443 26.8105 3.87633C28.8939 4.75753 30.7654 6.01948 32.373 7.62711C33.9806 9.23474 35.2426 11.1063 36.1238 13.1897C37.0357 15.3456 37.4981 17.637 37.4981 20C37.4981 22.3631 37.0357 24.6545 36.1238 26.8104C35.2426 28.8938 33.9806 30.7653 32.373 32.373C30.7654 33.9806 28.8938 35.2425 26.8105 36.1237C24.6545 37.0356 22.3632 37.498 20.0001 37.498C17.637 37.498 15.3456 37.0356 13.1897 36.1237C11.1063 35.2425 9.23478 33.9806 7.62715 32.373C6.01952 30.7653 4.75757 28.8938 3.87637 26.8104C2.96447 24.6545 2.5021 22.3631 2.5021 20C2.5021 17.6369 2.96447 15.3456 3.87637 13.1897C4.75757 11.1062 6.01952 9.23474 7.62715 7.62711C9.23478 6.01948 11.1063 4.75753 13.1897 3.87633C15.3456 2.96443 17.637 2.50206 20.0001 2.50206ZM20.0001 0.503418C9.23238 0.503418 0.503418 9.23238 0.503418 20.0001C0.503418 30.7678 9.23238 39.4967 20.0001 39.4967C30.7678 39.4967 39.4967 30.7678 39.4967 20.0001C39.4967 9.23238 30.7678 0.503418 20.0001 0.503418Z" fill="white" fill-opacity="0.3"/>
<path d="M17.6879 27.3675C14.1852 27.5315 11.3537 25.7748 11.3537 23.4377C11.3537 21.098 14.1851 19.2211 17.6879 19.0594C21.1926 18.898 24.03 20.3422 24.03 22.6777C24.03 25.015 21.1926 27.2088 17.6879 27.3675ZM25.1462 19.7739C24.3138 19.6125 24.7185 19.1646 24.7185 19.1646C24.7185 19.1646 25.5323 17.8227 24.5571 16.8475C23.3485 15.6393 20.4121 17.0014 20.4121 17.0014C19.2905 17.3493 19.5874 16.8422 19.746 15.9799C19.746 14.9638 19.3981 13.2431 16.4099 14.2594C13.4255 15.2807 10.8627 18.8604 10.8627 18.8604C9.08014 21.2382 9.31654 23.0762 9.31654 23.0762C9.76112 27.1345 14.0729 28.2482 17.4265 28.512C20.9551 28.7887 25.7166 27.2957 27.161 24.2289C28.6047 21.1562 25.9807 19.9406 25.1462 19.7739Z" fill="white" fill-opacity="0.3"/>
<path d="M18.1778 23.4631C17.9546 23.6297 17.68 23.6069 17.563 23.4067C17.4399 23.2123 17.486 22.9 17.7113 22.736C17.9722 22.5415 18.244 22.5975 18.3615 22.7925C18.479 22.9919 18.3948 23.2914 18.1778 23.4631ZM16.1007 25.2319C15.4428 25.3093 14.9127 24.9302 14.9127 24.3795C14.9127 23.8319 15.3841 23.258 16.0422 23.1894C16.7973 23.1174 17.289 23.5531 17.289 24.1032C17.289 24.6508 16.7558 25.1577 16.1007 25.2319ZM16.9893 20.6009C13.4668 21.0131 13.8737 24.3129 13.8737 24.3129C13.8737 24.3129 13.8376 25.3581 14.8182 25.89C16.8795 27.0068 19.0014 26.3309 20.0745 24.9457C21.147 23.5608 20.5174 20.191 16.9893 20.6009ZM26.8615 18.3453C27.1455 18.3453 27.3866 18.1351 27.4276 17.8616C27.4325 17.8414 27.4349 17.8207 27.4348 17.7999C27.8651 13.9316 24.2654 14.5974 24.2654 14.5974C23.9454 14.5974 23.6896 14.8559 23.6896 15.1784C23.6896 15.496 23.9454 15.7546 24.2654 15.7546C26.8512 15.1837 26.2801 17.7692 26.2801 17.7692C26.2801 18.0891 26.541 18.3453 26.8615 18.3453Z" fill="white" fill-opacity="0.3"/>
<path d="M26.4421 11.5932C25.1973 11.3017 23.9175 11.5533 23.5582 11.6218C23.5308 11.6247 23.5045 11.6505 23.4794 11.6559C23.4668 11.6582 23.4592 11.671 23.4592 11.671C23.1053 11.7709 22.8472 12.0985 22.8472 12.4852C22.8472 12.9459 23.2207 13.3249 23.6867 13.3249C23.6867 13.3249 24.1401 13.2642 24.4469 13.1439C24.7515 13.0215 27.3297 13.0526 28.6099 15.203C29.3088 16.7722 28.9173 17.8228 28.8687 17.9917C28.8687 17.9917 28.7023 18.3992 28.7023 18.8009C28.7023 19.2644 29.0759 19.5557 29.5392 19.5557C29.9259 19.5557 30.2513 19.5025 30.3459 18.8481H30.3508C31.7257 14.2662 28.6689 12.1133 26.4421 11.5932Z" fill="white" fill-opacity="0.3"/>
</g>
<defs>
<clipPath id="clip0_446_30">
<rect width="40" height="40" fill="white"/>
</clipPath>
</defs>
</svg>
